<svg xmlns="http://www.w3.org/2000/svg" version="1.1" xmlns:xlink="http://www.w3.org/1999/xlink" xmlns:svgjs="http://svgjs.dev/svgjs" width="1440" height="560" preserveAspectRatio="none" viewBox="0 0 1440 560"><g mask="url(&quot;#SvgjsMask1057&quot;)" fill="none"><rect width="1440" height="560" x="0" y="0" fill="rgba(40, 42, 44, 1)"></rect><path d="M43.52 352.57L149.18 413.57L149.18 535.57L43.52 596.57L-62.14 535.57L-62.14 413.57zM254.84 -13.43L360.49 47.57L360.49 169.57L254.84 230.57L149.18 169.57L149.18 47.57zM360.49 535.57L466.15 596.57L466.15 718.57L360.49 779.57L254.84 718.57L254.84 596.57zM783.13 535.57L888.78 596.57L888.78 718.57L783.13 779.57L677.47 718.57L677.47 596.57zM1100.1 -13.43L1205.76 47.57L1205.76 169.57L1100.1 230.57L994.44 169.57L994.44 47.57zM1205.76 169.57L1311.42 230.57L1311.42 352.57L1205.76 413.57L1100.1 352.57L1100.1 230.57zM1311.42 -13.43L1417.08 47.57L1417.08 169.57L1311.42 230.57L1205.76 169.57L1205.76 47.57zM1417.08 169.57L1522.73 230.57L1522.73 352.57L1417.08 413.57L1311.42 352.57L1311.42 230.57z" stroke="#03305d" stroke-width="2"></path><path d="M31.32 352.57 a12.2 12.2 0 1 0 24.4 0 a12.2 12.2 0 1 0 -24.4 0zM136.98 413.57 a12.2 12.2 0 1 0 24.4 0 a12.2 12.2 0 1 0 -24.4 0zM136.98 535.57 a12.2 12.2 0 1 0 24.4 0 a12.2 12.2 0 1 0 -24.4 0zM31.32 596.57 a12.2 12.2 0 1 0 24.4 0 a12.2 12.2 0 1 0 -24.4 0zM-74.34 535.57 a12.2 12.2 0 1 0 24.4 0 a12.2 12.2 0 1 0 -24.4 0zM-74.34 413.57 a12.2 12.2 0 1 0 24.4 0 a12.2 12.2 0 1 0 -24.4 0zM242.64 -13.43 a12.2 12.2 0 1 0 24.4 0 a12.2 12.2 0 1 0 -24.4 0zM348.29 47.57 a12.2 12.2 0 1 0 24.4 0 a12.2 12.2 0 1 0 -24.4 0zM348.29 169.57 a12.2 12.2 0 1 0 24.4 0 a12.2 12.2 0 1 0 -24.4 0zM242.64 230.57 a12.2 12.2 0 1 0 24.4 0 a12.2 12.2 0 1 0 -24.4 0zM136.98 169.57 a12.2 12.2 0 1 0 24.4 0 a12.2 12.2 0 1 0 -24.4 0zM136.98 47.57 a12.2 12.2 0 1 0 24.4 0 a12.2 12.2 0 1 0 -24.4 0zM348.29 535.57 a12.2 12.2 0 1 0 24.4 0 a12.2 12.2 0 1 0 -24.4 0zM453.95 596.57 a12.2 12.2 0 1 0 24.4 0 a12.2 12.2 0 1 0 -24.4 0zM453.95 718.57 a12.2 12.2 0 1 0 24.4 0 a12.2 12.2 0 1 0 -24.4 0zM348.29 779.57 a12.2 12.2 0 1 0 24.4 0 a12.2 12.2 0 1 0 -24.4 0zM242.64 718.57 a12.2 12.2 0 1 0 24.4 0 a12.2 12.2 0 1 0 -24.4 0zM242.64 596.57 a12.2 12.2 0 1 0 24.4 0 a12.2 12.2 0 1 0 -24.4 0zM770.93 535.57 a12.2 12.2 0 1 0 24.4 0 a12.2 12.2 0 1 0 -24.4 0zM876.58 596.57 a12.2 12.2 0 1 0 24.4 0 a12.2 12.2 0 1 0 -24.4 0zM876.58 718.57 a12.2 12.2 0 1 0 24.4 0 a12.2 12.2 0 1 0 -24.4 0zM770.93 779.57 a12.2 12.2 0 1 0 24.4 0 a12.2 12.2 0 1 0 -24.4 0zM665.27 718.57 a12.2 12.2 0 1 0 24.4 0 a12.2 12.2 0 1 0 -24.4 0zM665.27 596.57 a12.2 12.2 0 1 0 24.4 0 a12.2 12.2 0 1 0 -24.4 0zM1087.9 -13.43 a12.2 12.2 0 1 0 24.4 0 a12.2 12.2 0 1 0 -24.4 0zM1193.56 47.57 a12.2 12.2 0 1 0 24.4 0 a12.2 12.2 0 1 0 -24.4 0zM1193.56 169.57 a12.2 12.2 0 1 0 24.4 0 a12.2 12.2 0 1 0 -24.4 0zM1087.9 230.57 a12.2 12.2 0 1 0 24.4 0 a12.2 12.2 0 1 0 -24.4 0zM982.24 169.57 a12.2 12.2 0 1 0 24.4 0 a12.2 12.2 0 1 0 -24.4 0zM982.24 47.57 a12.2 12.2 0 1 0 24.4 0 a12.2 12.2 0 1 0 -24.4 0zM1299.22 230.57 a12.2 12.2 0 1 0 24.4 0 a12.2 12.2 0 1 0 -24.4 0zM1299.22 352.57 a12.2 12.2 0 1 0 24.4 0 a12.2 12.2 0 1 0 -24.4 0zM1193.56 413.57 a12.2 12.2 0 1 0 24.4 0 a12.2 12.2 0 1 0 -24.4 0zM1087.9 352.57 a12.2 12.2 0 1 0 24.4 0 a12.2 12.2 0 1 0 -24.4 0zM1299.22 -13.43 a12.2 12.2 0 1 0 24.4 0 a12.2 12.2 0 1 0 -24.4 0zM1404.88 47.57 a12.2 12.2 0 1 0 24.4 0 a12.2 12.2 0 1 0 -24.4 0zM1404.88 169.57 a12.2 12.2 0 1 0 24.4 0 a12.2 12.2 0 1 0 -24.4 0zM1510.53 230.57 a12.2 12.2 0 1 0 24.4 0 a12.2 12.2 0 1 0 -24.4 0zM1510.53 352.57 a12.2 12.2 0 1 0 24.4 0 a12.2 12.2 0 1 0 -24.4 0zM1404.88 413.57 a12.2 12.2 0 1 0 24.4 0 a12.2 12.2 0 1 0 -24.4 0z" fill="#03305d"></path><path d="M37.96 -17.54L81.26 7.46L81.26 57.46L37.96 82.46L-5.34 57.46L-5.34 7.46zM81.26 357.46L124.56 382.46L124.56 432.46L81.26 457.46L37.96 432.46L37.96 382.46zM37.96 432.46L81.26 457.46L81.26 507.46L37.96 532.46L-5.34 507.46L-5.34 457.46zM124.56 -17.54L167.87 7.46L167.87 57.46L124.56 82.46L81.26 57.46L81.26 7.46zM167.87 57.46L211.17 82.46L211.17 132.46L167.87 157.46L124.56 132.46L124.56 82.46zM167.87 207.46L211.17 232.46L211.17 282.46L167.87 307.46L124.56 282.46L124.56 232.46zM167.87 507.46L211.17 532.46L211.17 582.46L167.87 607.46L124.56 582.46L124.56 532.46zM211.17 -17.54L254.47 7.46L254.47 57.46L211.17 82.46L167.87 57.46L167.87 7.46zM211.17 132.46L254.47 157.46L254.47 207.46L211.17 232.46L167.87 207.46L167.87 157.46zM211.17 282.46L254.47 307.46L254.47 357.46L211.17 382.46L167.87 357.46L167.87 307.46zM254.47 507.46L297.77 532.46L297.77 582.46L254.47 607.46L211.17 582.46L211.17 532.46zM297.77 132.46L341.08 157.46L341.08 207.46L297.77 232.46L254.47 207.46L254.47 157.46zM341.08 207.46L384.38 232.46L384.38 282.46L341.08 307.46L297.77 282.46L297.77 232.46zM297.77 282.46L341.08 307.46L341.08 357.46L297.77 382.46L254.47 357.46L254.47 307.46zM297.77 432.46L341.08 457.46L341.08 507.46L297.77 532.46L254.47 507.46L254.47 457.46zM384.38 -17.54L427.68 7.46L427.68 57.46L384.38 82.46L341.08 57.46L341.08 7.46zM427.68 57.46L470.99 82.46L470.99 132.46L427.68 157.46L384.38 132.46L384.38 82.46zM384.38 132.46L427.68 157.46L427.68 207.46L384.38 232.46L341.08 207.46L341.08 157.46zM427.68 507.46L470.99 532.46L470.99 582.46L427.68 607.46L384.38 582.46L384.38 532.46zM514.29 357.46L557.59 382.46L557.59 432.46L514.29 457.46L470.99 432.46L470.99 382.46zM600.89 357.46L644.2 382.46L644.2 432.46L600.89 457.46L557.59 432.46L557.59 382.46zM557.59 432.46L600.89 457.46L600.89 507.46L557.59 532.46L514.29 507.46L514.29 457.46zM644.2 132.46L687.5 157.46L687.5 207.46L644.2 232.46L600.89 207.46L600.89 157.46zM687.5 207.46L730.8 232.46L730.8 282.46L687.5 307.46L644.2 282.46L644.2 232.46zM687.5 357.46L730.8 382.46L730.8 432.46L687.5 457.46L644.2 432.46L644.2 382.46zM687.5 507.46L730.8 532.46L730.8 582.46L687.5 607.46L644.2 582.46L644.2 532.46zM774.1 57.46L817.41 82.46L817.41 132.46L774.1 157.46L730.8 132.46L730.8 82.46zM730.8 132.46L774.1 157.46L774.1 207.46L730.8 232.46L687.5 207.46L687.5 157.46zM730.8 432.46L774.1 457.46L774.1 507.46L730.8 532.46L687.5 507.46L687.5 457.46zM860.71 57.46L904.01 82.46L904.01 132.46L860.71 157.46L817.41 132.46L817.41 82.46zM817.41 132.46L860.71 157.46L860.71 207.46L817.41 232.46L774.1 207.46L774.1 157.46zM860.71 357.46L904.01 382.46L904.01 432.46L860.71 457.46L817.41 432.46L817.41 382.46zM817.41 432.46L860.71 457.46L860.71 507.46L817.41 532.46L774.1 507.46L774.1 457.46zM947.31 207.46L990.62 232.46L990.62 282.46L947.31 307.46L904.01 282.46L904.01 232.46zM904.01 432.46L947.31 457.46L947.31 507.46L904.01 532.46L860.71 507.46L860.71 457.46zM947.31 507.46L990.62 532.46L990.62 582.46L947.31 607.46L904.01 582.46L904.01 532.46zM990.62 -17.54L1033.92 7.46L1033.92 57.46L990.62 82.46L947.31 57.46L947.31 7.46zM1033.92 57.46L1077.22 82.46L1077.22 132.46L1033.92 157.46L990.62 132.46L990.62 82.46zM990.62 132.46L1033.92 157.46L1033.92 207.46L990.62 232.46L947.31 207.46L947.31 157.46zM1033.92 207.46L1077.22 232.46L1077.22 282.46L1033.92 307.46L990.62 282.46L990.62 232.46zM990.62 282.46L1033.92 307.46L1033.92 357.46L990.62 382.46L947.31 357.46L947.31 307.46zM1033.92 357.46L1077.22 382.46L1077.22 432.46L1033.92 457.46L990.62 432.46L990.62 382.46zM1120.52 207.46L1163.83 232.46L1163.83 282.46L1120.52 307.46L1077.22 282.46L1077.22 232.46zM1077.22 282.46L1120.52 307.46L1120.52 357.46L1077.22 382.46L1033.92 357.46L1033.92 307.46zM1120.52 357.46L1163.83 382.46L1163.83 432.46L1120.52 457.46L1077.22 432.46L1077.22 382.46zM1207.13 57.46L1250.43 82.46L1250.43 132.46L1207.13 157.46L1163.83 132.46L1163.83 82.46zM1163.83 132.46L1207.13 157.46L1207.13 207.46L1163.83 232.46L1120.52 207.46L1120.52 157.46zM1207.13 207.46L1250.43 232.46L1250.43 282.46L1207.13 307.46L1163.83 282.46L1163.83 232.46zM1207.13 507.46L1250.43 532.46L1250.43 582.46L1207.13 607.46L1163.83 582.46L1163.83 532.46zM1250.43 -17.54L1293.73 7.46L1293.73 57.46L1250.43 82.46L1207.13 57.46L1207.13 7.46zM1293.73 57.46L1337.04 82.46L1337.04 132.46L1293.73 157.46L1250.43 132.46L1250.43 82.46zM1250.43 132.46L1293.73 157.46L1293.73 207.46L1250.43 232.46L1207.13 207.46L1207.13 157.46zM1250.43 282.46L1293.73 307.46L1293.73 357.46L1250.43 382.46L1207.13 357.46L1207.13 307.46zM1380.34 57.46L1423.64 82.46L1423.64 132.46L1380.34 157.46L1337.04 132.46L1337.04 82.46zM1337.04 132.46L1380.34 157.46L1380.34 207.46L1337.04 232.46L1293.73 207.46L1293.73 157.46zM1380.34 207.46L1423.64 232.46L1423.64 282.46L1380.34 307.46L1337.04 282.46L1337.04 232.46zM1380.34 357.46L1423.64 382.46L1423.64 432.46L1380.34 457.46L1337.04 432.46L1337.04 382.46zM1423.64 -17.54L1466.94 7.46L1466.94 57.46L1423.64 82.46L1380.34 57.46L1380.34 7.46zM1466.94 57.46L1510.25 82.46L1510.25 132.46L1466.94 157.46L1423.64 132.46L1423.64 82.46zM1466.94 207.46L1510.25 232.46L1510.25 282.46L1466.94 307.46L1423.64 282.46L1423.64 232.46zM1466.94 357.46L1510.25 382.46L1510.25 432.46L1466.94 457.46L1423.64 432.46L1423.64 382.46z" stroke="rgba(6, 80, 156, 0.93)" stroke-width="2"></path></g><defs><mask id="SvgjsMask1057"><rect width="1440" height="560" fill="#ffffff"></rect></mask></defs></svg>